<svg viewBox="0 0 58 58" fill="none" xmlns="http://www.w3.org/2000/svg">
  <title>OpenSearch</title>
  <g>
    <path fill="#005EB8"
      d="M51.4479 22.9801C50.4065 22.9801 49.5624 23.8243 49.5624 24.8656C49.5624 40.3813 36.9845 52.9591 21.4689 52.9591C20.4275 52.9591 19.5834 53.8033 19.5834 54.8446C19.5834 55.8859 20.4275 56.7301 21.4689 56.7301C39.0671 56.7301 53.3334 42.4639 53.3334 24.8656C53.3334 23.8243 52.4892 22.9801 51.4479 22.9801Z" />
    <path fill="#003B5C"
      d="M40.0679 35.0634C41.881 32.1055 43.6346 28.1616 43.2896 22.6401C42.5749 11.2028 32.2158 2.52621 22.4339 3.46651C18.6044 3.83462 14.6724 6.95606 15.0217 12.5471C15.1735 14.9768 16.3627 16.4108 18.2954 17.5133C20.1349 18.5627 22.4982 19.2275 25.1774 19.981C28.4135 20.8912 32.1674 21.9136 35.0526 24.0398C38.5104 26.5881 40.8743 29.542 40.0679 35.0634Z" />
    <path fill="#005EB8"
      d="M3.26551 15.0634C1.4523 18.0213 -0.301255 21.9652 0.0437442 27.4866C0.758393 38.9239 11.1176 47.6005 20.8995 46.6603C24.7289 46.2921 28.661 43.1707 28.3117 37.5796C28.1598 35.1499 26.9706 33.7159 25.038 32.6134C23.1985 31.564 20.8352 30.8993 18.156 30.1458C14.9198 29.2355 11.1659 28.2131 8.28079 26.0869C4.82289 23.5387 2.4591 20.5848 3.26551 15.0634Z" />
  </g>
</svg>